<?xml version="1.0" encoding="UTF-8" standalone="no"?>
<svg
   width="22"
   height="19"
   viewBox="0 0 22 19"
   fill="none"
   version="1.1"
   id="svg4"
   sodipodi:docname="like-active.svg"
   inkscape:version="1.1 (c68e22c387, 2021-05-23)"
   xmlns:inkscape="http://www.inkscape.org/namespaces/inkscape"
   xmlns:sodipodi="http://sodipodi.sourceforge.net/DTD/sodipodi-0.dtd"
   xmlns="http://www.w3.org/2000/svg"
   xmlns:svg="http://www.w3.org/2000/svg">
  <defs
     id="defs8" />
  <sodipodi:namedview
     id="namedview6"
     pagecolor="#ffffff"
     bordercolor="#666666"
     borderopacity="1.0"
     inkscape:pageshadow="2"
     inkscape:pageopacity="0.0"
     inkscape:pagecheckerboard="0"
     showgrid="false"
     inkscape:zoom="43.789474"
     inkscape:cx="11.007212"
     inkscape:cy="9.5114183"
     inkscape:window-width="1920"
     inkscape:window-height="1017"
     inkscape:window-x="-8"
     inkscape:window-y="-8"
     inkscape:window-maximized="1"
     inkscape:current-layer="svg4" />
  <path
     d="M20.2991 9.78586C22.567 7.54338 22.567 3.90213 20.2991 1.68186C18.0311 -0.560619 14.3486 -0.560619 12.0806 1.68186L10.9804 2.792L9.88007 1.70406C7.61215 -0.560619 3.92957 -0.560619 1.6841 1.68186C0.583822 2.76979 0 4.21297 0 5.74496C0 7.27695 0.606277 8.72013 1.6841 9.80806L10.9804 19L20.2991 9.78586ZM1.4371 5.74496C1.4371 4.59042 1.8862 3.52469 2.71702 2.72539C3.5703 1.88168 4.67058 1.45983 5.77086 1.45983C6.87114 1.45983 7.97142 1.88168 8.8247 2.72539L10.9804 4.83465L13.136 2.70318C14.8201 1.03798 17.582 1.03798 19.2437 2.70318C20.0521 3.50248 20.5236 4.56821 20.5236 5.72276C20.5236 6.8773 20.0745 7.94303 19.2437 8.74233L10.9804 16.9351L2.71702 8.76453C1.90865 7.94303 1.4371 6.8773 1.4371 5.74496Z"
     fill="black"
     id="path2" />
  <path
     style="fill:#000000;stroke-width:0.0253503"
     d="M 6.24952,12.96996 C 3.6591262,10.47427 1.4673021,8.3467264 1.3787998,8.2420853 0.31926625,6.9893395 -0.01218861,5.3546115 0.48798851,3.8486238 0.60299729,3.5023426 0.89214792,2.9435724 1.1099263,2.6467569 1.3173602,2.3640403 1.7145891,1.952322 2.0166945,1.706913 3.1392667,0.79501524 4.6068995,0.42613454 6.0404618,0.69556318 6.5610211,0.79339883 7.1462682,1.0127791 7.602026,1.2809165 8.0377581,1.5372719 8.2950868,1.7567664 9.4354197,2.8447512 10.062839,3.4433686 10.667131,4.0158291 10.778291,4.1168857 l 0.202109,0.183739 1.341969,-1.2852065 c 0.738083,-0.7068636 1.411327,-1.3367321 1.496097,-1.3997079 0.679053,-0.5044722 1.395501,-0.81219938 2.202549,-0.94603511 1.668846,-0.27675049 3.359183,0.30299275 4.465093,1.53141481 0.608549,0.6759649 0.991266,1.4589787 1.158393,2.3699986 0.04603,0.2509174 0.04603,1.150053 0,1.4009704 -0.160435,0.8745431 -0.489392,1.5776708 -1.035831,2.2140338 -0.175242,0.2040794 -9.572435,9.2962772 -9.626401,9.3139672 -0.01262,0.0042 -2.1423557,-2.034409 -4.732749,-4.5301 z"
     id="path881" />
</svg>
