<?xml version="1.0" encoding="UTF-8" standalone="no"?>
<svg
   width="22"
   height="19"
   viewBox="0 0 22 19"
   fill="none"
   version="1.1"
   id="svg4"
   sodipodi:docname="like-active.svg"
   inkscape:version="1.1 (c68e22c387, 2021-05-23)"
   xmlns:inkscape="http://www.inkscape.org/namespaces/inkscape"
   xmlns:sodipodi="http://sodipodi.sourceforge.net/DTD/sodipodi-0.dtd"
   xmlns="http://www.w3.org/2000/svg"
   xmlns:svg="http://www.w3.org/2000/svg">
  <defs
     id="defs8" />
  <sodipodi:namedview
     id="namedview6"
     pagecolor="#ffffff"
     bordercolor="#666666"
     borderopacity="1.0"
     inkscape:pageshadow="2"
     inkscape:pageopacity="0.0"
     inkscape:pagecheckerboard="0"
     showgrid="false"
     inkscape:zoom="43.789474"
     inkscape:cx="11.007212"
     inkscape:cy="9.5114183"
     inkscape:window-width="1920"
     inkscape:window-height="1017"
     inkscape:window-x="-8"
     inkscape:window-y="-8"
     inkscape:window-maximized="1"
     inkscape:current-layer="svg4" />
  <path
     d="M20.2991 9.78586C22.567 7.54338 22.567 3.90213 20.2991 1.68186C18.0311 -0.560619 14.3486 -0.560619 12.0806 1.68186L10.9804 2.792L9.88007 1.70406C7.61215 -0.560619 3.92957 -0.560619 1.6841 1.68186C0.583822 2.76979 0 4.21297 0 5.74496C0 7.27695 0.606277 8.72013 1.6841 9.80806L10.9804 19L20.2991 9.78586ZM1.4371 5.74496C1.4371 4.59042 1.8862 3.52469 2.71702 2.72539C3.5703 1.88168 4.67058 1.45983 5.77086 1.45983C6.87114 1.45983 7.97142 1.88168 8.8247 2.72539L10.9804 4.83465L13.136 2.70318C14.8201 1.03798 17.582 1.03798 19.2437 2.70318C20.0521 3.50248 20.5236 4.56821 20.5236 5.72276C20.5236 6.8773 20.0745 7.94303 19.2437 8.74233L10.9804 16.9351L2.71702 8.76453C1.90865 7.94303 1.4371 6.8773 1.4371 5.74496Z"
     fill="black"
     id="path2" />
  <path
     style="fill:#000000;stroke-width:0.025346"
     d="M 6.3526245,13.195225 C 3.8094801,10.654017 1.6576352,8.4876702 1.5707473,8.3811207 0.53053976,7.1055269 0.20513074,5.4409841 0.69618445,3.9075296 0.80909555,3.5549328 1.0929719,2.9859714 1.3067781,2.6837426 1.5104283,2.3958697 1.9004116,1.9766424 2.1970066,1.7267575 3.2991029,0.79822818 4.7399658,0.42261971 6.1473797,0.69696227 6.6584438,0.79658229 7.233016,1.0199637 7.6804606,1.2929914 8.1082449,1.5540225 8.3608799,1.7775202 9.4804124,2.8853479 10.096388,3.4948832 10.689657,4.0777845 10.79879,4.1806841 l 0.198423,0.1870901 1.317491,-1.3086466 c 0.724621,-0.7197556 1.385584,-1.3611119 1.468808,-1.4252363 0.666667,-0.5136728 1.370047,-0.82701249 2.162374,-0.96328917 1.638405,-0.28179796 3.29791,0.30851885 4.383648,1.55934527 0.59745,0.6882933 0.973185,1.4855882 1.137264,2.4132235 0.04519,0.2554938 0.04519,1.1710281 0,1.4265219 -0.157509,0.8904934 -0.480466,1.6064449 -1.016937,2.2544141 -0.172045,0.2078015 -9.397833,9.4658261 -9.450814,9.4838391 -0.01239,0.0042 -2.1032783,-2.071513 -4.6464225,-4.612721 z"
     id="path862" />
</svg>
